<svg width="48" height="48" viewBox="0 0 48 48" fill="none" xmlns="http://www.w3.org/2000/svg">
<path fill-rule="evenodd" clip-rule="evenodd" d="M24 4C20.287 4 16.726 5.475 14.1005 8.1005C11.475 10.726 10 14.287 10 18C8.4087 18 6.88258 18.6321 5.75736 19.7574C4.63214 20.8826 4 22.4087 4 24V28C4 29.5913 4.63214 31.1174 5.75736 32.2426C6.88258 33.3679 8.4087 34 10 34H12C12.5304 34 13.0391 33.7893 13.4142 33.4142C13.7893 33.0391 14 32.5304 14 32V18C14 15.3478 15.0536 12.8043 16.9289 10.9289C18.8043 9.05357 21.3478 8 24 8C26.6522 8 29.1957 9.05357 31.0711 10.9289C32.9464 12.8043 34 15.3478 34 18V32.166C33.9984 33.7128 33.3832 35.1958 32.2895 36.2895C31.1958 37.3832 29.7128 37.9984 28.166 38H28C28 36.9391 27.5786 35.9217 26.8284 35.1716C26.0783 34.4214 25.0609 34 24 34H22C20.9391 34 19.9217 34.4214 19.1716 35.1716C18.4214 35.9217 18 36.9391 18 38V40C18 41.0609 18.4214 42.0783 19.1716 42.8284C19.9217 43.5786 20.9391 44 22 44H24C24.7021 44 25.3919 43.8151 25.9999 43.4641C26.608 43.113 27.1129 42.6081 27.464 42H28.166C30.4554 41.9985 32.6726 41.1988 34.4358 39.7386C36.199 38.2783 37.3979 36.249 37.826 34H38C39.5913 34 41.1174 33.3679 42.2426 32.2426C43.3679 31.1174 44 29.5913 44 28V24C44 22.4087 43.3679 20.8826 42.2426 19.7574C41.1174 18.6321 39.5913 18 38 18C38 14.287 36.525 10.726 33.8995 8.1005C31.274 5.475 27.713 4 24 4ZM26.9 10.55C25.4193 9.97439 23.8008 9.85264 22.2507 10.2003C20.7006 10.5479 19.289 11.3492 18.196 12.502C17.8311 12.8871 17.634 13.4014 17.6483 13.9317C17.6626 14.4621 17.8869 14.9651 18.272 15.33C18.6571 15.6949 19.1714 15.892 19.7017 15.8777C20.2321 15.8634 20.7351 15.6391 21.1 15.254C21.4628 14.8714 21.8977 14.5643 22.3796 14.3503C22.8615 14.1364 23.381 14.0198 23.9081 14.0074C24.4353 13.9949 24.9597 14.0868 25.4512 14.2778C25.9426 14.4687 26.3915 14.7549 26.772 15.12C26.9614 15.302 27.1847 15.4449 27.4293 15.5406C27.6739 15.6363 27.935 15.6829 28.1976 15.6777C28.4602 15.6725 28.7192 15.6156 28.9598 15.5103C29.2005 15.405 29.418 15.2534 29.6 15.064C29.782 14.8746 29.9249 14.6513 30.0206 14.4067C30.1163 14.1621 30.1629 13.901 30.1577 13.6384C30.1525 13.3758 30.0956 13.1168 29.9903 12.8762C29.885 12.6355 29.7334 12.418 29.544 12.236C28.7831 11.5053 27.8852 10.9323 26.902 10.55H26.9Z" fill="white"/>
</svg>
