<svg width="42" height="42" viewBox="0 0 42 42" fill="none" xmlns="http://www.w3.org/2000/svg">
<rect x="1" y="1" width="40" height="40" rx="6" stroke="white" stroke-width="2"/>
<path d="M30.2363 11.8325C29.04 10.6242 27.6172 9.66377 26.0492 9.00613C24.4813 8.3485 22.799 8.00659 21.0988 8H21C17.5522 8 14.2456 9.36964 11.8076 11.8076C9.36964 14.2456 8 17.5522 8 21V28C8 28.7956 8.31607 29.5587 8.87868 30.1213C9.44129 30.6839 10.2044 31 11 31H13C13.7957 31 14.5587 30.6839 15.1213 30.1213C15.6839 29.5587 16 28.7956 16 28V23C16 22.2044 15.6839 21.4413 15.1213 20.8787C14.5587 20.3161 13.7957 20 13 20H10.045C10.2379 17.9149 11.021 15.928 12.3028 14.2721C13.5845 12.6163 15.3117 11.36 17.2819 10.6507C19.2521 9.94137 21.3836 9.80832 23.4267 10.2671C25.4698 10.726 27.3398 11.7576 28.8175 13.2413C30.6236 15.0566 31.7346 17.4488 31.9563 20H29C28.2044 20 27.4413 20.3161 26.8787 20.8787C26.3161 21.4413 26 22.2044 26 23V28C26 28.7956 26.3161 29.5587 26.8787 30.1213C27.4413 30.6839 28.2044 31 29 31H32C32 31.7956 31.6839 32.5587 31.1213 33.1213C30.5587 33.6839 29.7957 34 29 34H22C21.7348 34 21.4804 34.1054 21.2929 34.2929C21.1054 34.4804 21 34.7348 21 35C21 35.2652 21.1054 35.5196 21.2929 35.7071C21.4804 35.8946 21.7348 36 22 36H29C30.3261 36 31.5979 35.4732 32.5355 34.5355C33.4732 33.5979 34 32.3261 34 31V21C34.0065 19.2995 33.6774 17.6144 33.0316 16.0412C32.3857 14.4681 31.4358 13.0379 30.2363 11.8325ZM13 22C13.2652 22 13.5196 22.1054 13.7071 22.2929C13.8946 22.4804 14 22.7348 14 23V28C14 28.2652 13.8946 28.5196 13.7071 28.7071C13.5196 28.8946 13.2652 29 13 29H11C10.7348 29 10.4804 28.8946 10.2929 28.7071C10.1054 28.5196 10 28.2652 10 28V22H13ZM29 29C28.7348 29 28.4804 28.8946 28.2929 28.7071C28.1054 28.5196 28 28.2652 28 28V23C28 22.7348 28.1054 22.4804 28.2929 22.2929C28.4804 22.1054 28.7348 22 29 22H32V29H29Z" fill="white"/>
</svg>
