<svg width="42" height="42" viewBox="0 0 42 42" fill="none" xmlns="http://www.w3.org/2000/svg">
<rect x="1" y="1" width="40" height="40" rx="6" stroke="white" stroke-width="2"/>
<path d="M33.9999 22.0825C33.7875 24.5524 32.874 26.9104 31.367 28.8788C29.86 30.8473 27.8221 32.3443 25.4932 33.1939C23.1642 34.0435 20.641 34.2103 18.2205 33.6746C15.8 33.1389 13.5828 31.9231 11.8298 30.1701C10.0769 28.4171 8.86099 26.1999 8.3253 23.7794C7.78962 21.3589 7.95638 18.8357 8.80598 16.5068C9.65558 14.1778 11.1527 12.1399 13.1211 10.6329C15.0896 9.12591 17.4475 8.21244 19.9174 7.99998C20.0488 7.98915 20.1809 8.00428 20.3064 8.04453C20.4319 8.08477 20.5482 8.14934 20.6487 8.23454C20.7492 8.31973 20.832 8.4239 20.8923 8.54108C20.9525 8.65826 20.9891 8.78616 20.9999 8.91748C21.0108 9.0488 20.9956 9.18097 20.9554 9.30644C20.9151 9.43191 20.8506 9.54823 20.7654 9.64875C20.6802 9.74927 20.576 9.83202 20.4588 9.89229C20.3417 9.95255 20.2138 9.98915 20.0824 9.99998C17.9919 10.1796 15.9962 10.9526 14.3301 12.2279C12.664 13.5033 11.3968 15.228 10.6776 17.1991C9.95843 19.1703 9.81721 21.3058 10.2705 23.3544C10.7239 25.4031 11.7529 27.2797 13.2366 28.7633C14.7203 30.247 16.5968 31.276 18.6455 31.7294C20.6941 32.1827 22.8297 32.0415 24.8008 31.3223C26.7719 30.6032 28.4966 29.336 29.772 27.6698C31.0474 26.0037 31.8203 24.008 31.9999 21.9175C32.0218 21.6523 32.1482 21.4066 32.3512 21.2345C32.5542 21.0625 32.8172 20.9781 33.0824 21C33.3477 21.0219 33.5933 21.1482 33.7654 21.3512C33.9375 21.5542 34.0218 21.8173 33.9999 22.0825ZM19.9999 14V21C19.9999 21.2652 20.1053 21.5196 20.2928 21.7071C20.4804 21.8946 20.7347 22 20.9999 22H27.9999C28.2652 22 28.5195 21.8946 28.7071 21.7071C28.8946 21.5196 28.9999 21.2652 28.9999 21C28.9999 20.7348 28.8946 20.4804 28.7071 20.2929C28.5195 20.1053 28.2652 20 27.9999 20H21.9999V14C21.9999 13.7348 21.8946 13.4804 21.7071 13.2929C21.5195 13.1053 21.2652 13 20.9999 13C20.7347 13 20.4804 13.1053 20.2928 13.2929C20.1053 13.4804 19.9999 13.7348 19.9999 14ZM24.9999 11C25.2966 11 25.5866 10.912 25.8333 10.7472C26.08 10.5824 26.2722 10.3481 26.3858 10.074C26.4993 9.79992 26.529 9.49832 26.4711 9.20734C26.4132 8.91637 26.2704 8.6491 26.0606 8.43932C25.8508 8.22954 25.5835 8.08668 25.2926 8.0288C25.0016 7.97092 24.7 8.00063 24.4259 8.11416C24.1518 8.22769 23.9176 8.41995 23.7527 8.66662C23.5879 8.9133 23.4999 9.20331 23.4999 9.49998C23.4999 9.8978 23.658 10.2793 23.9393 10.5606C24.2206 10.8419 24.6021 11 24.9999 11ZM29.4999 14C29.7966 14 30.0866 13.912 30.3333 13.7472C30.58 13.5824 30.7722 13.3481 30.8858 13.074C30.9993 12.7999 31.029 12.4983 30.9711 12.2073C30.9132 11.9164 30.7704 11.6491 30.5606 11.4393C30.3508 11.2295 30.0835 11.0867 29.7926 11.0288C29.5016 10.9709 29.2 11.0006 28.9259 11.1142C28.6518 11.2277 28.4176 11.42 28.2527 11.6666C28.0879 11.9133 27.9999 12.2033 27.9999 12.5C27.9999 12.8978 28.158 13.2793 28.4393 13.5606C28.7206 13.8419 29.1021 14 29.4999 14ZM32.4999 18.5C32.7966 18.5 33.0866 18.412 33.3333 18.2472C33.58 18.0824 33.7722 17.8481 33.8858 17.574C33.9993 17.2999 34.029 16.9983 33.9711 16.7073C33.9132 16.4164 33.7704 16.1491 33.5606 15.9393C33.3508 15.7295 33.0835 15.5867 32.7926 15.5288C32.5016 15.4709 32.2 15.5006 31.9259 15.6142C31.6518 15.7277 31.4176 15.92 31.2527 16.1666C31.0879 16.4133 30.9999 16.7033 30.9999 17C30.9999 17.3978 31.158 17.7793 31.4393 18.0606C31.7206 18.3419 32.1021 18.5 32.4999 18.5Z" fill="white"/>
</svg>
