<svg width="42" height="42" viewBox="0 0 42 42" fill="none" xmlns="http://www.w3.org/2000/svg">
<rect x="1" y="1" width="40" height="40" rx="6" stroke="white" stroke-width="2"/>
<path d="M21 8C18.4288 8 15.9154 8.76244 13.7776 10.1909C11.6398 11.6194 9.97351 13.6497 8.98957 16.0251C8.00563 18.4006 7.74819 21.0144 8.2498 23.5362C8.75141 26.0579 9.98953 28.3743 11.8076 30.1924C13.6257 32.0105 15.9421 33.2486 18.4638 33.7502C20.9856 34.2518 23.5995 33.9944 25.9749 33.0104C28.3503 32.0265 30.3807 30.3603 31.8091 28.2224C33.2376 26.0846 34 23.5712 34 21C33.9964 17.5533 32.6256 14.2488 30.1884 11.8116C27.7512 9.37445 24.4467 8.00364 21 8ZM21 32C18.8244 32 16.6977 31.3549 14.8887 30.1462C13.0798 28.9375 11.6699 27.2195 10.8373 25.2095C10.0048 23.1995 9.78693 20.9878 10.2114 18.854C10.6358 16.7202 11.6835 14.7602 13.2218 13.2218C14.7602 11.6834 16.7202 10.6358 18.854 10.2114C20.9878 9.78692 23.1995 10.0048 25.2095 10.8373C27.2195 11.6699 28.9375 13.0798 30.1462 14.8887C31.3549 16.6977 32 18.8244 32 21C31.9967 23.9164 30.8367 26.7123 28.7745 28.7745C26.7123 30.8367 23.9164 31.9967 21 32ZM26 19C26.0002 18.1608 25.7891 17.3351 25.3863 16.5989C24.9835 15.8627 24.4019 15.2398 23.6951 14.7874C22.9882 14.3351 22.1789 14.068 21.3417 14.0106C20.5045 13.9533 19.6663 14.1076 18.9044 14.4593C18.1425 14.811 17.4813 15.3489 16.9819 16.0232C16.4825 16.6976 16.1608 17.4869 16.0466 18.3182C15.9323 19.1496 16.0292 19.9963 16.3282 20.7805C16.6272 21.5646 17.1187 22.2608 17.7575 22.805L16.085 26.5963C16.0178 26.7485 15.9897 26.9151 16.0032 27.0809C16.0166 27.2468 16.0713 27.4067 16.1621 27.5461C16.253 27.6855 16.3772 27.8 16.5235 27.8793C16.6698 27.9585 16.8336 28 17 28H25C25.1664 28 25.3302 27.9585 25.4765 27.8793C25.6228 27.8 25.747 27.6855 25.8379 27.5461C25.9287 27.4067 25.9834 27.2468 25.9969 27.0809C26.0103 26.9151 25.9822 26.7485 25.915 26.5963L24.2425 22.805C24.7924 22.335 25.2342 21.7516 25.5376 21.0948C25.8409 20.438 25.9987 19.7234 26 19ZM22.085 22.875L23.46 26.0063H18.5338L19.9088 22.875C20.0107 22.6494 20.0253 22.394 19.9498 22.1583C19.8743 21.9225 19.714 21.7232 19.5 21.5987C18.9281 21.2685 18.4811 20.7589 18.2284 20.1487C17.9756 19.5386 17.9313 18.8621 18.1022 18.2242C18.2732 17.5863 18.6498 17.0226 19.1737 16.6206C19.6977 16.2186 20.3396 16.0007 21 16.0007C21.6604 16.0007 22.3024 16.2186 22.8263 16.6206C23.3502 17.0226 23.7269 17.5863 23.8978 18.2242C24.0687 18.8621 24.0244 19.5386 23.7716 20.1487C23.5189 20.7589 23.0719 21.2685 22.5 21.5987C22.2849 21.7222 22.1233 21.9211 22.0466 22.1569C21.9699 22.3928 21.9836 22.6487 22.085 22.875Z" fill="white"/>
</svg>
