<svg width="42" height="42" viewBox="0 0 42 42" fill="none" xmlns="http://www.w3.org/2000/svg">
<rect x="1" y="1" width="40" height="40" rx="6" stroke="white" stroke-width="2"/>
<path d="M35.53 12.5C35.386 12.4102 35.2216 12.3584 35.0521 12.3497C34.8826 12.341 34.7137 12.3755 34.5613 12.45C29.195 15.075 25.3625 13.845 21.3113 12.5475C17.0613 11.1863 12.655 9.78003 6.5675 12.7525C6.39741 12.8341 6.25387 12.9622 6.15345 13.1219C6.05304 13.2815 5.99984 13.4664 6 13.655V28.6463C5.99998 28.816 6.04312 28.9828 6.12538 29.1312C6.20764 29.2796 6.3263 29.4047 6.4702 29.4945C6.6141 29.5844 6.77851 29.6362 6.94794 29.6451C7.11738 29.6539 7.28628 29.6195 7.43875 29.545C12.805 26.92 16.6375 28.15 20.695 29.4475C23.1 30.2163 25.55 31 28.32 31C30.4562 31 32.7863 30.535 35.4338 29.2425C35.6019 29.1604 35.7437 29.0328 35.8429 28.8741C35.9421 28.7155 35.9948 28.5322 35.995 28.345V13.3538C35.9965 13.1837 35.9546 13.016 35.8732 12.8666C35.7919 12.7172 35.6737 12.591 35.53 12.5ZM34 27.7088C28.925 29.98 25.2188 28.795 21.305 27.5438C18.9 26.775 16.45 25.9913 13.68 25.9913C11.7339 26.0007 9.80755 26.3826 8.005 27.1163V14.2913C13.08 12.02 16.7863 13.205 20.7 14.4563C24.6138 15.7075 28.6425 17 34 14.8863V27.7088ZM21 17C20.2089 17 19.4355 17.2346 18.7777 17.6742C18.1199 18.1137 17.6072 18.7384 17.3045 19.4693C17.0017 20.2002 16.9225 21.0045 17.0769 21.7804C17.2312 22.5563 17.6122 23.269 18.1716 23.8285C18.731 24.3879 19.4437 24.7688 20.2196 24.9232C20.9956 25.0775 21.7998 24.9983 22.5307 24.6956C23.2616 24.3928 23.8864 23.8801 24.3259 23.2223C24.7654 22.5645 25 21.7912 25 21C25 19.9392 24.5786 18.9218 23.8284 18.1716C23.0783 17.4215 22.0609 17 21 17ZM21 23C20.6044 23 20.2178 22.8827 19.8889 22.663C19.56 22.4432 19.3036 22.1309 19.1522 21.7654C19.0009 21.3999 18.9613 20.9978 19.0384 20.6099C19.1156 20.2219 19.3061 19.8655 19.5858 19.5858C19.8655 19.3061 20.2219 19.1156 20.6098 19.0385C20.9978 18.9613 21.3999 19.0009 21.7654 19.1523C22.1308 19.3036 22.4432 19.56 22.6629 19.8889C22.8827 20.2178 23 20.6045 23 21C23 21.5305 22.7893 22.0392 22.4142 22.4142C22.0391 22.7893 21.5304 23 21 23ZM12 17V23C12 23.2652 11.8946 23.5196 11.7071 23.7071C11.5196 23.8947 11.2652 24 11 24C10.7348 24 10.4804 23.8947 10.2929 23.7071C10.1054 23.5196 10 23.2652 10 23V17C10 16.7348 10.1054 16.4805 10.2929 16.2929C10.4804 16.1054 10.7348 16 11 16C11.2652 16 11.5196 16.1054 11.7071 16.2929C11.8946 16.4805 12 16.7348 12 17ZM30 25V19C30 18.7348 30.1054 18.4805 30.2929 18.2929C30.4804 18.1054 30.7348 18 31 18C31.2652 18 31.5196 18.1054 31.7071 18.2929C31.8946 18.4805 32 18.7348 32 19V25C32 25.2652 31.8946 25.5196 31.7071 25.7071C31.5196 25.8947 31.2652 26 31 26C30.7348 26 30.4804 25.8947 30.2929 25.7071C30.1054 25.5196 30 25.2652 30 25Z" fill="white"/>
</svg>
