<svg width="42" height="42" viewBox="0 0 42 42" fill="none" xmlns="http://www.w3.org/2000/svg">
<rect x="1" y="1" width="40" height="40" rx="6" stroke="white" stroke-width="2"/>
<path d="M32 14C32 14.2652 31.8946 14.5196 31.7071 14.7071C31.5196 14.8946 31.2652 15 31 15H27C26.7348 15 26.4804 14.8946 26.2929 14.7071C26.1054 14.5196 26 14.2652 26 14C26 13.7348 26.1054 13.4804 26.2929 13.2929C26.4804 13.1054 26.7348 13 27 13H31C31.2652 13 31.5196 13.1054 31.7071 13.2929C31.8946 13.4804 32 13.7348 32 14ZM31 17H27C26.7348 17 26.4804 17.1054 26.2929 17.2929C26.1054 17.4804 26 17.7348 26 18C26 18.2652 26.1054 18.5196 26.2929 18.7071C26.4804 18.8946 26.7348 19 27 19H31C31.2652 19 31.5196 18.8946 31.7071 18.7071C31.8946 18.5196 32 18.2652 32 18C32 17.7348 31.8946 17.4804 31.7071 17.2929C31.5196 17.1054 31.2652 17 31 17ZM36 11V31C36 31.5304 35.7893 32.0391 35.4142 32.4142C35.0391 32.7893 34.5304 33 34 33H24C23.4696 33 22.9609 32.7893 22.5858 32.4142C22.2107 32.0391 22 31.5304 22 31V29H17V31H19C19.2652 31 19.5196 31.1054 19.7071 31.2929C19.8946 31.4804 20 31.7348 20 32C20 32.2652 19.8946 32.5196 19.7071 32.7071C19.5196 32.8946 19.2652 33 19 33H13C12.7348 33 12.4804 32.8946 12.2929 32.7071C12.1054 32.5196 12 32.2652 12 32C12 31.7348 12.1054 31.4804 12.2929 31.2929C12.4804 31.1054 12.7348 31 13 31H15V29H9C8.20435 29 7.44129 28.6839 6.87868 28.1213C6.31607 27.5587 6 26.7956 6 26V17C6 16.2044 6.31607 15.4413 6.87868 14.8787C7.44129 14.3161 8.20435 14 9 14H22V11C22 10.4696 22.2107 9.96086 22.5858 9.58579C22.9609 9.21071 23.4696 9 24 9H34C34.5304 9 35.0391 9.21071 35.4142 9.58579C35.7893 9.96086 36 10.4696 36 11ZM22 27V16H9C8.73478 16 8.48043 16.1054 8.29289 16.2929C8.10536 16.4804 8 16.7348 8 17V26C8 26.2652 8.10536 26.5196 8.29289 26.7071C8.48043 26.8946 8.73478 27 9 27H22ZM34 31V11H24V31H34ZM29 26C28.7033 26 28.4133 26.088 28.1666 26.2528C27.92 26.4176 27.7277 26.6519 27.6142 26.926C27.5007 27.2001 27.4709 27.5017 27.5288 27.7926C27.5867 28.0836 27.7296 28.3509 27.9393 28.5607C28.1491 28.7704 28.4164 28.9133 28.7074 28.9712C28.9983 29.0291 29.2999 28.9993 29.574 28.8858C29.8481 28.7723 30.0824 28.58 30.2472 28.3334C30.412 28.0867 30.5 27.7967 30.5 27.5C30.5 27.1022 30.342 26.7206 30.0607 26.4393C29.7794 26.158 29.3978 26 29 26Z" fill="white"/>
</svg>
