<svg width="42" height="42" viewBox="0 0 42 42" fill="none" xmlns="http://www.w3.org/2000/svg">
<rect x="1" y="1" width="40" height="40" rx="6" stroke="white" stroke-width="2"/>
<path d="M27.5 23H25V19H27.5C28.39 19 29.26 18.7361 30.0001 18.2416C30.7401 17.7471 31.3169 17.0443 31.6575 16.2221C31.9981 15.3998 32.0872 14.495 31.9135 13.6221C31.7399 12.7492 31.3113 11.9474 30.682 11.318C30.0526 10.6887 29.2508 10.2601 28.3779 10.0865C27.505 9.91283 26.6002 10.0019 25.7779 10.3425C24.9557 10.6831 24.2529 11.2599 23.7584 11.9999C23.2639 12.74 23 13.61 23 14.5V17H19V14.5C19 13.61 18.7361 12.74 18.2416 11.9999C17.7471 11.2599 17.0443 10.6831 16.2221 10.3425C15.3998 10.0019 14.495 9.91283 13.6221 10.0865C12.7492 10.2601 11.9474 10.6887 11.318 11.318C10.6887 11.9474 10.2601 12.7492 10.0865 13.6221C9.91283 14.495 10.0019 15.3998 10.3425 16.2221C10.6831 17.0443 11.2599 17.7471 11.9999 18.2416C12.74 18.7361 13.61 19 14.5 19H17V23H14.5C13.61 23 12.74 23.2639 11.9999 23.7584C11.2599 24.2529 10.6831 24.9557 10.3425 25.7779C10.0019 26.6002 9.91283 27.505 10.0865 28.3779C10.2601 29.2508 10.6887 30.0526 11.318 30.682C11.9474 31.3113 12.7492 31.7399 13.6221 31.9135C14.495 32.0872 15.3998 31.9981 16.2221 31.6575C17.0443 31.3169 17.7471 30.7401 18.2416 30.0001C18.7361 29.26 19 28.39 19 27.5V25H23V27.5C23 28.39 23.2639 29.26 23.7584 30.0001C24.2529 30.7401 24.9557 31.3169 25.7779 31.6575C26.6002 31.9981 27.505 32.0872 28.3779 31.9135C29.2508 31.7399 30.0526 31.3113 30.682 30.682C31.3113 30.0526 31.7399 29.2508 31.9135 28.3779C32.0872 27.505 31.9981 26.6002 31.6575 25.7779C31.3169 24.9557 30.7401 24.2529 30.0001 23.7584C29.26 23.2639 28.39 23 27.5 23ZM25 14.5C25 14.0055 25.1466 13.5222 25.4213 13.1111C25.696 12.7 26.0865 12.3795 26.5433 12.1903C27.0001 12.0011 27.5028 11.9516 27.9877 12.048C28.4727 12.1445 28.9181 12.3826 29.2678 12.7322C29.6174 13.0819 29.8555 13.5273 29.952 14.0123C30.0484 14.4972 29.9989 14.9999 29.8097 15.4567C29.6205 15.9135 29.3001 16.304 28.8889 16.5787C28.4778 16.8534 27.9945 17 27.5 17H25V14.5ZM12 14.5C12 13.837 12.2634 13.2011 12.7322 12.7322C13.2011 12.2634 13.837 12 14.5 12C15.163 12 15.7989 12.2634 16.2678 12.7322C16.7366 13.2011 17 13.837 17 14.5V17H14.5C13.837 17 13.2011 16.7366 12.7322 16.2678C12.2634 15.7989 12 15.163 12 14.5ZM17 27.5C17 27.9945 16.8534 28.4778 16.5787 28.8889C16.304 29.3001 15.9135 29.6205 15.4567 29.8097C14.9999 29.9989 14.4972 30.0484 14.0123 29.952C13.5273 29.8555 13.0819 29.6174 12.7322 29.2678C12.3826 28.9181 12.1445 28.4727 12.048 27.9877C11.9516 27.5028 12.0011 27.0001 12.1903 26.5433C12.3795 26.0865 12.7 25.696 13.1111 25.4213C13.5222 25.1466 14.0055 25 14.5 25H17V27.5ZM19 19H23V23H19V19ZM27.5 30C26.837 30 26.2011 29.7366 25.7322 29.2678C25.2634 28.7989 25 28.163 25 27.5V25H27.5C28.163 25 28.7989 25.2634 29.2678 25.7322C29.7366 26.2011 30 26.837 30 27.5C30 28.163 29.7366 28.7989 29.2678 29.2678C28.7989 29.7366 28.163 30 27.5 30Z" fill="white"/>
</svg>
