<svg width="42" height="42" viewBox="0 0 42 42" fill="none" xmlns="http://www.w3.org/2000/svg">
<rect x="1" y="1" width="40" height="40" rx="6" stroke="white" stroke-width="2"/>
<path d="M30.0962 11.7363C27.6759 9.33949 24.4063 7.99651 21 8.00001H20.8662C17.4417 8.03524 14.1693 9.42042 11.7602 11.8546C9.35108 14.2888 7.99982 17.5752 8 21C8 26.375 11.3225 30.8825 16.67 32.7713C17.2731 32.9839 17.9185 33.0488 18.5519 32.9606C19.1853 32.8724 19.7883 32.6335 20.3104 32.2642C20.8324 31.8948 21.2583 31.4056 21.5523 30.8376C21.8463 30.2697 21.9998 29.6395 22 29C22 28.4696 22.2107 27.9609 22.5858 27.5858C22.9609 27.2107 23.4696 27 24 27H29.7762C30.6836 27.0044 31.5652 26.6983 32.2746 26.1326C32.984 25.5669 33.4786 24.7756 33.6762 23.89C33.8998 22.9059 34.0084 21.8992 34 20.89C33.9873 19.1818 33.6357 17.4932 32.9656 15.9219C32.2955 14.3506 31.3202 12.9279 30.0962 11.7363ZM31.7212 23.45C31.6219 23.8912 31.375 24.2853 31.0214 24.5671C30.6677 24.8489 30.2285 25.0017 29.7762 25H24C22.9391 25 21.9217 25.4214 21.1716 26.1716C20.4214 26.9217 20 27.9391 20 29C19.9995 29.3195 19.9226 29.6342 19.7755 29.9178C19.6285 30.2014 19.4156 30.4456 19.1548 30.6301C18.894 30.8145 18.5927 30.9338 18.2764 30.9779C17.96 31.0221 17.6376 30.9898 17.3362 30.8838C12.8112 29.2875 10 25.5 10 21C9.99984 18.1022 11.1431 15.3214 13.1815 13.2618C15.2199 11.2021 17.9886 10.03 20.8862 10H20.9987C23.8965 10.0113 26.6737 11.161 28.7315 13.2012C30.7892 15.2415 31.9627 18.0087 31.9987 20.9063C32.0062 21.7618 31.9148 22.6154 31.7262 23.45H31.7212ZM22.5 14.5C22.5 14.7967 22.412 15.0867 22.2472 15.3334C22.0824 15.58 21.8481 15.7723 21.574 15.8858C21.2999 15.9994 20.9983 16.0291 20.7074 15.9712C20.4164 15.9133 20.1491 15.7704 19.9393 15.5607C19.7296 15.3509 19.5867 15.0836 19.5288 14.7926C19.4709 14.5017 19.5006 14.2001 19.6142 13.926C19.7277 13.6519 19.92 13.4176 20.1666 13.2528C20.4133 13.088 20.7033 13 21 13C21.3978 13 21.7794 13.158 22.0607 13.4393C22.342 13.7207 22.5 14.1022 22.5 14.5ZM17 17.5C17 17.7967 16.912 18.0867 16.7472 18.3334C16.5824 18.58 16.3481 18.7723 16.074 18.8858C15.7999 18.9994 15.4983 19.0291 15.2074 18.9712C14.9164 18.9133 14.6491 18.7704 14.4393 18.5607C14.2296 18.3509 14.0867 18.0836 14.0288 17.7926C13.9709 17.5017 14.0006 17.2001 14.1142 16.926C14.2277 16.6519 14.42 16.4176 14.6666 16.2528C14.9133 16.088 15.2033 16 15.5 16C15.8978 16 16.2794 16.158 16.5607 16.4393C16.842 16.7207 17 17.1022 17 17.5ZM17 24.5C17 24.7967 16.912 25.0867 16.7472 25.3334C16.5824 25.58 16.3481 25.7723 16.074 25.8858C15.7999 25.9994 15.4983 26.0291 15.2074 25.9712C14.9164 25.9133 14.6491 25.7704 14.4393 25.5607C14.2296 25.3509 14.0867 25.0836 14.0288 24.7926C13.9709 24.5017 14.0006 24.2001 14.1142 23.926C14.2277 23.6519 14.42 23.4176 14.6666 23.2528C14.9133 23.088 15.2033 23 15.5 23C15.8978 23 16.2794 23.158 16.5607 23.4393C16.842 23.7207 17 24.1022 17 24.5ZM28 17.5C28 17.7967 27.912 18.0867 27.7472 18.3334C27.5824 18.58 27.3481 18.7723 27.074 18.8858C26.7999 18.9994 26.4983 19.0291 26.2074 18.9712C25.9164 18.9133 25.6491 18.7704 25.4393 18.5607C25.2296 18.3509 25.0867 18.0836 25.0288 17.7926C24.9709 17.5017 25.0006 17.2001 25.1142 16.926C25.2277 16.6519 25.42 16.4176 25.6666 16.2528C25.9133 16.088 26.2033 16 26.5 16C26.8978 16 27.2794 16.158 27.5607 16.4393C27.842 16.7207 28 17.1022 28 17.5Z" fill="white"/>
</svg>
