<svg width="42" height="42" viewBox="0 0 42 42" fill="none" xmlns="http://www.w3.org/2000/svg">
<rect x="1" y="1" width="40" height="40" rx="6" stroke="white" stroke-width="2"/>
<path d="M27 7H15C14.2044 7 13.4413 7.31607 12.8787 7.87868C12.3161 8.44129 12 9.20435 12 10V32C12 32.7956 12.3161 33.5587 12.8787 34.1213C13.4413 34.6839 14.2044 35 15 35H27C27.7956 35 28.5587 34.6839 29.1213 34.1213C29.6839 33.5587 30 32.7956 30 32V10C30 9.20435 29.6839 8.44129 29.1213 7.87868C28.5587 7.31607 27.7956 7 27 7ZM28 32C28 32.2652 27.8946 32.5196 27.7071 32.7071C27.5196 32.8946 27.2652 33 27 33H15C14.7348 33 14.4804 32.8946 14.2929 32.7071C14.1054 32.5196 14 32.2652 14 32V10C14 9.73478 14.1054 9.48043 14.2929 9.29289C14.4804 9.10536 14.7348 9 15 9H27C27.2652 9 27.5196 9.10536 27.7071 9.29289C27.8946 9.48043 28 9.73478 28 10V32ZM22.5 12.5C22.5 12.7967 22.412 13.0867 22.2472 13.3334C22.0824 13.58 21.8481 13.7723 21.574 13.8858C21.2999 13.9994 20.9983 14.0291 20.7074 13.9712C20.4164 13.9133 20.1491 13.7704 19.9393 13.5607C19.7296 13.3509 19.5867 13.0836 19.5288 12.7926C19.4709 12.5017 19.5006 12.2001 19.6142 11.926C19.7277 11.6519 19.92 11.4176 20.1666 11.2528C20.4133 11.088 20.7033 11 21 11C21.3978 11 21.7794 11.158 22.0607 11.4393C22.342 11.7206 22.5 12.1022 22.5 12.5Z" fill="white"/>
</svg>
