<svg width="42" height="42" viewBox="0 0 42 42" fill="none" xmlns="http://www.w3.org/2000/svg">
<rect x="1" y="1" width="40" height="40" rx="6" stroke="white" stroke-width="2"/>
<path d="M32.96 13.2688L21.96 7.25002C21.6661 7.08763 21.3358 7.00244 21 7.00244C20.6642 7.00244 20.3339 7.08763 20.04 7.25002L9.04 13.2713C8.72586 13.4432 8.46363 13.6962 8.28069 14.0041C8.09775 14.3119 8.00081 14.6632 8 15.0213V26.9763C8.00081 27.3344 8.09775 27.6857 8.28069 27.9935C8.46363 28.3013 8.72586 28.5544 9.04 28.7263L20.04 34.7475C20.3339 34.9099 20.6642 34.9951 21 34.9951C21.3358 34.9951 21.6661 34.9099 21.96 34.7475L32.96 28.7263C33.2741 28.5544 33.5364 28.3013 33.7193 27.9935C33.9023 27.6857 33.9992 27.3344 34 26.9763V15.0225C33.9999 14.6638 33.9032 14.3117 33.7203 14.0032C33.5373 13.6946 33.2747 13.441 32.96 13.2688ZM21 9.00002L31.0425 14.5L27.3213 16.5375L17.2775 11.0375L21 9.00002ZM21 20L10.9575 14.5L15.195 12.18L25.2375 17.68L21 20ZM10 16.25L20 21.7225V32.4463L10 26.9775V16.25ZM32 26.9725L22 32.4463V21.7275L26 19.5388V24C26 24.2652 26.1054 24.5196 26.2929 24.7071C26.4804 24.8947 26.7348 25 27 25C27.2652 25 27.5196 24.8947 27.7071 24.7071C27.8946 24.5196 28 24.2652 28 24V18.4438L32 16.25V26.9713V26.9725Z" fill="white"/>
</svg>
